<?xml version="1.0" encoding="UTF-8"?>
<svg width="209px" height="25px" viewBox="0 0 209 25" version="1.1" xmlns="http://www.w3.org/2000/svg" xmlns:xlink="http://www.w3.org/1999/xlink">
    <!-- Generator: Sketch 44.1 (41455) - http://www.bohemiancoding.com/sketch -->
    <title>Page 1</title>
    <desc>Created with Sketch.</desc>
    <defs>
        <polygon id="path-1" points="3.10625387 0.590182927 3.10625387 3.53652439 0.102733846 3.53652439 0.102733846 0.590182927 3.10625387 0.590182927"></polygon>
    </defs>
    <g stroke="none" stroke-width="1" fill="none" fill-rule="evenodd">
        <g>
            <g>
                <g>
                    <path d="M4.87205789,16.862439 C4.93172183,17.262439 5.02246074,17.5990244 5.14427461,17.8715854 C5.26733149,18.1441463 5.44694481,18.3660976 5.68435757,18.5368293 C5.92114883,18.707561 6.22009003,18.8313415 6.57931667,18.907561 C6.9391648,18.9837805 7.39348085,19.0221951 7.94226479,19.0221951 C9.18774954,19.0221951 10.2672939,18.8112195 11.1790335,18.3892683 C12.0913946,17.9679268 12.8477593,17.3807317 13.4487492,16.6282927 C14.0491176,15.8758537 14.4934897,14.9813415 14.7831084,13.9453659 C15.0721056,12.9087805 15.2175365,11.7728049 15.2175365,10.5368293 C15.2175365,9.24231707 15.0279791,8.05939024 14.649486,6.98682927 C14.2716144,5.91426829 13.7377464,4.9947561 13.0478821,4.22707317 C12.3586393,3.46060976 11.5258302,2.8654878 10.5506977,2.44414634 C9.57494365,2.02280488 8.49415624,1.81121951 7.30833543,1.81121951 C7.15979708,1.81121951 6.97645477,1.81365854 6.75768699,1.81731707 C6.53891921,1.82097561 6.31642243,1.82463415 6.09019666,1.82768293 C5.86397089,1.83195122 5.64333861,1.84109756 5.42892133,1.85512195 C5.21326104,1.87036585 5.02805423,1.88073171 4.87205789,1.88804878 L4.87205789,16.862439 Z M0.000124299875,19.1965854 L0.000124299875,19.0984146 C0.125667173,19.0984146 0.283528014,19.0910976 0.473085323,19.0764634 C0.662021133,19.0618293 0.849092444,19.0459756 1.03429926,19.0276829 C1.21950607,19.0093902 1.39601189,18.9856098 1.56319522,18.9569512 C1.72975706,18.9276829 1.85716443,18.8947561 1.94666034,18.8587805 C2.25803152,18.7423171 2.46934131,18.5752439 2.5805897,18.3569512 C2.69183809,18.1386585 2.74777303,17.8880488 2.74777303,17.6039024 L2.74777303,3.45878049 C2.74777303,3.1752439 2.69183809,2.91670732 2.5805897,2.68439024 C2.46934131,2.45146341 2.25803152,2.2697561 1.94666034,2.13865854 C1.62720966,2.01487805 1.29967949,1.92402439 0.96220533,1.86609756 C0.62473117,1.80817073 0.33697696,1.76792683 0.100185699,1.74597561 L0.100185699,1.63682927 L8.22069651,1.63682927 C8.79869093,1.63682927 9.43634929,1.69353659 10.1336716,1.80634146 C10.8303724,1.91914634 11.5332882,2.11 12.241176,2.3795122 C12.9496852,2.64902439 13.6358206,3.00573171 14.2995819,3.44963415 C14.9627217,3.89353659 15.5512816,4.44536585 16.0627756,5.10390244 C16.5742696,5.76304878 16.9857022,6.54231707 17.2970734,7.44109756 C17.6084445,8.33987805 17.7644409,9.37219512 17.7644409,10.5368293 C17.7644409,11.5331707 17.626468,12.4404878 17.3530083,13.2581707 C17.0783056,14.0758537 16.705406,14.8063415 16.2349309,15.4502439 C15.7638344,16.0941463 15.205728,16.6496341 14.5606116,17.1191463 C13.9154953,17.5880488 13.220659,17.9770732 12.4748597,18.2856098 C11.729682,18.5947561 10.9490788,18.8240244 10.1336716,18.9728049 C9.31764291,19.1221951 8.50596472,19.1965854 7.69739404,19.1965854 L0.000124299875,19.1965854 Z" fill="#221F20"></path>
                    <path d="M21.3242028,12.397622 L27.2197459,12.3433537 C27.2197459,11.7012805 27.1849419,11.0835976 27.114091,10.4884756 C27.0438616,9.89335366 26.9108607,9.3720122 26.7144669,8.92506098 C26.5180731,8.47810976 26.2483424,8.12140244 25.9040317,7.85432927 C25.5597211,7.5872561 25.117835,7.45371951 24.5771306,7.45371951 C24.111006,7.45371951 23.685279,7.56347561 23.3005709,7.78359756 C22.9158627,8.00371951 22.5808746,8.32323171 22.2956064,8.74152439 C22.0103382,9.15920732 21.7828694,9.67689024 21.6132001,10.2933537 C21.4429092,10.9104268 21.3465768,11.6116463 21.3242028,12.397622 M19.199918,13.2817683 C19.199918,12.525061 19.3186244,11.7866463 19.5579016,11.0659146 C19.7971789,10.3457927 20.1439755,9.70554878 20.5989131,9.14579268 C21.0532291,8.58542683 21.6088496,8.13420732 22.2651529,7.79213415 C22.9202132,7.45006098 23.6722275,7.27932927 24.5224386,7.27932927 C25.3496543,7.27932927 26.0507056,7.41042683 26.6268355,7.6720122 C27.2023439,7.93420732 27.670333,8.29457317 28.0295596,8.7525 C28.3894077,9.21103659 28.6504375,9.75615854 28.8126488,10.3896951 C28.9748601,11.022622 29.0550336,11.7031098 29.0550336,12.4305488 L29.0550336,12.6159146 L21.3242028,12.6159146 L21.3242028,12.8671341 C21.3242028,13.7037195 21.4037548,14.4817683 21.5634801,15.2025 C21.7225839,15.922622 21.9686977,16.5488415 22.3011999,17.0793293 C22.6343235,17.6104268 23.0563216,18.0268902 23.5665726,18.3293293 C24.0780666,18.6311585 24.68465,18.7817683 25.3875658,18.7817683 C25.8996812,18.7817683 26.3465393,18.7293293 26.7281399,18.6238415 C27.110362,18.5183537 27.4478362,18.3659146 27.7405624,18.1653049 C28.0339101,17.9653049 28.3036408,17.7140854 28.5528621,17.4122561 C28.8008403,17.1104268 29.0475756,16.7628659 29.2918248,16.3701829 L29.4148817,16.4464024 C29.1917634,16.897622 28.9270047,17.3104268 28.6193625,17.6848171 C28.3117203,18.0598171 27.9618162,18.3762805 27.5684071,18.6348171 C27.174998,18.8927439 26.7492709,19.0927439 26.2887398,19.2348171 C25.8294518,19.3768902 25.3366028,19.447622 24.8101928,19.447622 C23.8487333,19.447622 23.0140596,19.282378 22.3061719,18.9512805 C21.5976626,18.6201829 21.0153177,18.1744512 20.5572726,17.6140854 C20.0986061,17.0543293 19.7580244,16.4012805 19.5349062,15.654939 C19.3117879,14.9098171 19.199918,14.1183537 19.199918,13.2817683" fill="#221F20"></path>
                    <path d="M30.7905084,15.442561 L30.9241308,15.442561 C31.0502951,15.9608537 31.239231,16.4571951 31.4915597,16.9309756 C31.7432669,17.4053659 32.0440726,17.822439 32.3921123,18.1840244 C32.7407734,18.545 33.1354255,18.8315854 33.5766901,19.0431707 C34.0179547,19.2541463 34.4871867,19.3602439 34.9843862,19.3602439 C35.5033382,19.3602439 35.9483317,19.2870732 36.3193668,19.1413415 C36.6897805,18.9956098 36.9955581,18.7962195 37.2366999,18.5437805 C37.4778417,18.2919512 37.6555905,17.999878 37.7705679,17.667561 C37.8855453,17.3352439 37.9433447,16.9864634 37.9433447,16.6212195 C37.9433447,16.2864634 37.8724938,15.9992683 37.7320349,15.7590244 C37.590333,15.5187805 37.3846168,15.3041463 37.1142645,15.115122 C36.8432908,14.9260976 36.5058166,14.7547561 36.1024635,14.6023171 C35.6978675,14.4492683 35.2292569,14.2968293 34.6947675,14.1437805 C34.1683575,13.9840244 33.686074,13.8053659 33.2491599,13.6090244 C32.8110029,13.4126829 32.4331312,13.1779268 32.1143021,12.9047561 C31.7954729,12.6321951 31.5468731,12.3047561 31.3691243,11.9230488 C31.1913755,11.5407317 31.1018796,11.0773171 31.1018796,10.5315854 C31.1018796,10.0663415 31.185782,9.63280488 31.3523438,9.23280488 C31.5195272,8.83280488 31.7600474,8.48707317 32.0751476,8.19621951 C32.3902478,7.90536585 32.7718484,7.6797561 33.2211925,7.51939024 C33.669915,7.35963415 34.1720865,7.27914634 34.7283284,7.27914634 C35.3069444,7.27914634 35.8551068,7.35414634 36.3746803,7.50292683 C36.8936323,7.65231707 37.3125228,7.83219512 37.6319735,8.04317073 L38.1210935,7.24682927 L38.2323419,7.24682927 L38.4212777,10.6626829 L38.2770899,10.6626829 C38.1875939,10.2553659 38.0247611,9.85841463 37.7873484,9.47243902 C37.5499356,9.08707317 37.2702609,8.74378049 36.9470812,8.44134146 C36.6251445,8.1395122 36.2615674,7.89926829 35.8569713,7.72121951 C35.4529967,7.54317073 35.0322416,7.45353659 34.5947061,7.45353659 C34.1870025,7.45353659 33.8315048,7.51573171 33.5269701,7.6395122 C33.2224355,7.76329268 32.9688637,7.93219512 32.7650119,8.14682927 C32.5611601,8.36146341 32.4076498,8.60719512 32.3038594,8.88341463 C32.1994475,9.1602439 32.147863,9.44378049 32.147863,9.73463415 C32.147863,10.1206098 32.216228,10.4334146 32.3535793,10.6730488 C32.4903092,10.9132927 32.694161,11.1230488 32.9651347,11.3010976 C33.2361084,11.4791463 33.5748256,11.6352439 33.9831507,11.77 C34.3908543,11.9047561 34.8725163,12.0596341 35.4293797,12.2340244 C35.9700842,12.4084146 36.4616902,12.5992683 36.9029547,12.8065854 C37.3442193,13.0145122 37.7202264,13.265122 38.0315976,13.5602439 C38.3435903,13.8547561 38.5828675,14.1980488 38.7494294,14.5913415 C38.9159912,14.9840244 38.9998936,15.449878 38.9998936,15.9882927 C38.9998936,16.5267073 38.8898882,17.0139024 38.671742,17.4504878 C38.4529742,17.8870732 38.157762,18.2602439 37.7873484,18.5687805 C37.4163132,18.8785366 36.9806422,19.1163415 36.4803352,19.2840244 C35.9800282,19.4510976 35.4436742,19.5346341 34.8725163,19.5346341 C34.5393926,19.5346341 34.211241,19.5041463 33.8880613,19.442561 C33.5661246,19.3803659 33.2603469,19.3004878 32.9707282,19.2023171 C32.681731,19.1035366 32.4126218,18.995 32.1646435,18.874878 C31.9160438,18.7547561 31.7028695,18.6328049 31.5251207,18.5090244 L31.0241922,19.295 L30.9241308,19.295 L30.7905084,15.442561 Z" fill="#221F20"></path>
                    <path d="M42.1031021,2.34646341 C42.1031021,2.15743902 42.1379061,1.97878049 42.207514,1.81170732 C42.2765005,1.64463415 42.3715899,1.49707317 42.4921608,1.36963415 C42.6121101,1.24219512 42.7531905,1.14036585 42.9135373,1.06414634 C43.0738842,0.987317073 43.241689,0.949512195 43.4169518,0.949512195 C43.6357196,0.949512195 43.8308704,0.982439024 44.0042687,1.04768293 C44.1776671,1.11353659 44.3237194,1.20256098 44.4449118,1.31536585 C44.5648612,1.42817073 44.6587076,1.5604878 44.7270725,1.71353659 C44.7948159,1.86597561 44.8283769,2.02268293 44.8283769,2.18243902 C44.8283769,2.37207317 44.7948159,2.55560976 44.7270725,2.73365854 C44.6587076,2.91231707 44.5611322,3.06841463 44.4331033,3.20317073 C44.3056959,3.33792683 44.1552931,3.4452439 43.9812733,3.52512195 C43.8084964,3.605 43.6201821,3.6452439 43.4169518,3.6452439 C43.241689,3.6452439 43.0738842,3.6104878 42.9135373,3.54097561 C42.7531905,3.47207317 42.6121101,3.37573171 42.4921608,3.25195122 C42.3715899,3.12878049 42.2765005,2.99036585 42.207514,2.83731707 C42.1379061,2.68487805 42.1031021,2.52085366 42.1031021,2.34646341 M40.5014983,7.8354878 L40.5014983,7.73731707 L44.4256453,7.45378049 L44.5617537,7.57390244 L44.5617537,17.6031707 C44.5617537,18.1781707 44.7948159,18.5781707 45.260319,18.8037805 C45.7127705,18.9714634 46.0912636,19.0696341 46.3970413,19.0982927 L46.3970413,19.1964634 L40.9017439,19.1964634 L40.9017439,19.0982927 C41.1348061,19.0763415 41.3355504,19.0623171 41.5027338,19.0543902 C41.6699171,19.0476829 41.8489089,19.0110976 42.0384662,18.9458537 C42.2777435,18.8653659 42.4530063,18.7110976 42.5623902,18.4818293 C42.6711526,18.252561 42.726466,18.0104878 42.726466,17.7556098 L42.726466,9.60378049 C42.726466,9.34158537 42.6587226,9.10012195 42.5238572,8.87817073 C42.3877489,8.65621951 42.214972,8.47268293 42.0030407,8.32695122 C41.9297038,8.27634146 41.8296424,8.22146341 41.7016136,8.16353659 C41.5729632,8.105 41.4424483,8.05256098 41.3069615,8.005 C41.1714746,7.95804878 41.0347447,7.91963415 40.8961504,7.89036585 C40.7569345,7.86109756 40.6251766,7.84341463 40.5014983,7.8354878" fill="#221F20"></path>
                    <path d="M50.0454291,11.0006707 C50.0454291,11.4811585 50.1032285,11.9409146 50.2182059,12.3811585 C50.3338048,12.8214024 50.4972591,13.2092073 50.7085689,13.5433537 C50.9205002,13.8781098 51.1697215,14.147622 51.4562327,14.3512805 C51.7415009,14.554939 52.0597086,14.6567683 52.4096127,14.6567683 C52.8179378,14.6567683 53.1765429,14.5512805 53.4848066,14.3403049 C53.7936918,14.1293293 54.0460206,13.8543293 54.2430359,13.5159146 C54.4400512,13.1781098 54.5873465,12.7957927 54.6836789,12.3701829 C54.7800113,11.9445732 54.8284883,11.5134756 54.8284883,11.0768902 C54.8284883,10.6305488 54.7837403,10.1903049 54.6942444,9.75737805 C54.60537,9.32506098 54.4642896,8.9372561 54.2710033,8.59457317 C54.077717,8.2525 53.8247668,7.97689024 53.5127741,7.7677439 C53.2007814,7.55859756 52.8216668,7.45371951 52.3754302,7.45371951 C51.9148992,7.45371951 51.5351631,7.55676829 51.2387079,7.7622561 C50.9410097,7.9677439 50.7054614,8.23237805 50.5301986,8.55676829 C50.3555573,8.88115854 50.2312574,9.2579878 50.157299,9.68664634 C50.0827191,10.1159146 50.0454291,10.5537195 50.0454291,11.0006707 M49.0553806,21.929939 C49.0553806,22.2945732 49.129339,22.6482317 49.2778774,22.9909146 C49.4264157,23.3335976 49.6638285,23.6396951 49.9888726,23.9092073 C50.3151598,24.1793293 50.7452374,24.3957927 51.2803483,24.5598171 C51.8167023,24.7238415 52.4643047,24.8061585 53.2237769,24.8061585 C53.9105337,24.8061585 54.5227106,24.7275 55.059686,24.5707927 C55.597283,24.4140854 56.0522205,24.1915244 56.4251202,23.9037195 C56.7973983,23.6153049 57.080802,23.2598171 57.2747098,22.8378659 C57.4679961,22.4146951 57.56495,21.929939 57.56495,21.3829878 C57.56495,20.9092073 57.4648886,20.5061585 57.2641443,20.1744512 C57.0640215,19.8427439 56.7302764,19.582378 56.2635303,19.3927439 C56.11002,19.3768902 55.9304067,19.3585976 55.7259334,19.3378659 C55.5208386,19.3171341 55.2554583,19.2988415 54.9297927,19.2842073 C54.6047485,19.2701829 54.2100964,19.254939 53.7470794,19.2403049 C53.2840623,19.2256707 52.7265774,19.2183537 52.076489,19.2183537 C51.5096816,19.2988415 51.0354776,19.4098171 50.6520125,19.5518902 C50.2679259,19.6939634 49.9577977,19.8781098 49.7216279,20.1043293 C49.4854582,20.329939 49.3151673,20.5945732 49.2113769,20.8970122 C49.1075865,21.1994512 49.0553806,21.5439634 49.0553806,21.929939 M47.4649637,21.8756707 C47.4649637,21.4964024 47.5681326,21.1506707 47.7744704,20.8366463 C47.9808082,20.5232317 48.2753989,20.2464024 48.6594855,20.0061585 C49.0435721,19.7653049 49.5028601,19.5665244 50.0385926,19.4104268 C50.5749466,19.2537195 51.171586,19.1390854 51.8309968,19.0659146 L51.8309968,18.9457927 C51.5339201,18.8805488 51.2026609,18.7915244 50.8390838,18.6793293 C50.4748852,18.5665244 50.1367895,18.4159146 49.8254183,18.2275 C49.5134256,18.0384756 49.2530174,17.8104268 49.0448151,17.5421341 C48.8372343,17.2732317 48.7328224,16.9543293 48.7328224,16.5842073 C48.7328224,16.2994512 48.8018088,16.0531098 48.9391602,15.8451829 C49.0758901,15.6372561 49.2511529,15.4598171 49.4630842,15.3140854 C49.674394,15.1677439 49.9099422,15.0439634 50.1703505,14.9415244 C50.4301372,14.8390854 50.6868164,14.7445732 50.9391452,14.6567683 L50.9391452,14.5695732 C50.0472936,14.1622561 49.3692378,13.6579878 48.9055992,13.0579878 C48.4419607,12.457378 48.2101414,11.7793293 48.2101414,11.022622 C48.2101414,10.4329878 48.3207683,9.90615854 48.5414006,9.43969512 C48.7620329,8.97445122 49.0659461,8.58176829 49.4531402,8.26164634 C49.8403343,7.94152439 50.2909213,7.69762195 50.8049013,7.53054878 C51.3188813,7.36286585 51.8689083,7.27932927 52.4549822,7.27932927 C52.8359613,7.27932927 53.1970524,7.31042683 53.5376341,7.3720122 C53.8788372,7.43359756 54.1958019,7.51408537 54.4885281,7.6122561 C54.7824973,7.71042683 55.0441486,7.82323171 55.2753463,7.95067073 C55.5059226,8.07810976 55.7029379,8.20310976 55.8632847,8.32689024 C55.9850986,8.26164634 56.1355015,8.17628049 56.3169793,8.07018293 C56.4984571,7.96469512 56.6992014,7.86286585 56.9192122,7.76469512 C57.1386014,7.66652439 57.3753927,7.58115854 57.6283429,7.5079878 C57.8812932,7.43603659 58.1379724,7.39945122 58.3990022,7.39945122 C58.8259722,7.39945122 59.1789839,7.48847561 59.4586586,7.66652439 C59.7389548,7.84518293 59.8787922,8.12323171 59.8787922,8.50128049 C59.8787922,8.87993902 59.7942683,9.17993902 59.6258419,9.40189024 C59.4574156,9.62384146 59.2150308,9.73481707 58.8999307,9.73481707 C58.4176471,9.73481707 58.098818,9.56408537 57.9434431,9.2220122 C57.8172788,8.95981707 57.7538858,8.61103659 57.7538858,8.17384146 C57.7538858,8.0579878 57.7576148,7.93054878 57.7650728,7.79213415 C57.6768199,7.79213415 57.556249,7.80859756 57.4021172,7.84091463 C57.2486068,7.87384146 57.083288,7.92506098 56.9074037,7.99396341 C56.7321408,8.06347561 56.550663,8.15067073 56.3635917,8.25615854 C56.1765204,8.36164634 56.0105801,8.48664634 55.8632847,8.63237805 L55.8632847,8.76347561 C55.9776406,8.93054878 56.0820525,9.11835366 56.1783849,9.32506098 C56.2740958,9.5329878 56.3573767,9.74579268 56.4288492,9.96408537 C56.5003216,10.182378 56.5574995,10.3933537 56.5997615,10.5970122 C56.6426449,10.8006707 56.6637759,10.9860366 56.6637759,11.1531098 C56.6637759,11.7171341 56.5413405,12.2238415 56.2958483,12.6738415 C56.050356,13.1238415 55.7333914,13.5079878 55.3455757,13.8268902 C54.9571386,14.1451829 54.5233321,14.3921341 54.0441561,14.5677439 C53.563737,14.7433537 53.093262,14.8311585 52.6321095,14.8311585 L50.9950801,14.8311585 C50.6973819,14.9177439 50.4512682,15.054939 50.2579819,15.2427439 C50.0640741,15.4305488 49.9677417,15.6903049 49.9677417,16.022622 C49.9677417,16.3543293 50.0727751,16.6092073 50.2847063,16.7860366 C50.4960161,16.9628659 50.7607749,17.0927439 51.079604,17.1756707 C51.3990547,17.2592073 51.7303139,17.3092073 52.0758675,17.3262805 C52.4201782,17.3439634 52.7414934,17.3598171 53.0373271,17.3744512 L55.6625404,17.504939 C56.1006975,17.5268902 56.5251816,17.6220122 56.9347496,17.7890854 C57.3449392,17.9567683 57.7047874,18.1860366 58.0161586,18.4775 C58.3269082,18.7683537 58.5761295,19.1195732 58.7632008,19.5317683 C58.9508936,19.9427439 59.0441185,20.407378 59.0441185,20.9238415 C59.0441185,21.4988415 58.9086317,22.0348171 58.6370364,22.5329878 C58.3654412,23.0305488 57.9633311,23.4616463 57.4313276,23.825061 C56.8987027,24.1884756 56.2461283,24.4714024 55.4711186,24.6756707 C54.6967304,24.8787195 53.8173088,24.9805488 52.8334753,24.9805488 C50.9863791,24.9805488 49.6290245,24.7116463 48.7632759,24.1744512 C47.8975273,23.6372561 47.4649637,22.8707927 47.4649637,21.8756707" fill="#221F20"></path>
                    <path d="M60.7353426,7.83579268 L60.7353426,7.73762195 L64.4258059,7.45408537 L64.5395403,7.5522561 L64.5395403,9.63640244 L64.5836667,9.63640244 C64.835374,9.40347561 65.0926747,9.14920732 65.355569,8.87237805 C65.6178417,8.59615854 65.9142969,8.33762195 66.2436916,8.0979878 C66.5730862,7.8577439 66.9447429,7.66140244 67.3592829,7.50835366 C67.773823,7.35530488 68.2623215,7.27908537 68.8254,7.27908537 C69.4381983,7.27908537 69.9646083,7.37420732 70.4040084,7.56323171 C70.8434084,7.7522561 71.2094716,8.02542683 71.5003333,8.38152439 C71.792438,8.73823171 72.0087197,9.16567073 72.1485571,9.66384146 C72.2896375,10.1620122 72.3592454,10.7168902 72.3592454,11.3284756 L72.3592454,17.6577439 C72.3592454,18.240061 72.5941722,18.6333537 73.0646472,18.8364024 C73.251097,18.9168902 73.4300888,18.9748171 73.6016226,19.0114024 C73.7731565,19.0479878 73.9782513,19.0766463 74.216907,19.0985976 L74.216907,19.1967683 L68.3654904,19.1967683 L68.3654904,19.0985976 C68.6345996,19.0766463 68.8769844,19.0583537 69.0926447,19.0437195 C69.3089265,19.0290854 69.5177503,18.9967683 69.7191161,18.9455488 C69.9876038,18.8656707 70.1883481,18.7187195 70.3225919,18.5034756 C70.4574573,18.2894512 70.5239577,18.040061 70.5239577,17.7559146 L70.5239577,10.9790854 C70.5239577,10.5278659 70.4537283,10.1278659 70.312648,9.77847561 C70.1728106,9.42908537 69.9876038,9.13640244 69.7582705,8.89981707 C69.5283157,8.66323171 69.263557,8.48152439 68.9639943,8.35408537 C68.6644316,8.2272561 68.3592754,8.16323171 68.0479042,8.16323171 C67.5301953,8.16323171 67.0709072,8.23579268 66.6712831,8.38152439 C66.2710375,8.5272561 65.9273484,8.70347561 65.6389727,8.91079268 C65.3499755,9.11810976 65.1131842,9.3272561 64.9279774,9.53823171 C64.7427706,9.74981707 64.6134987,9.91993902 64.5395403,10.0510366 L64.5395403,17.6254268 C64.5395403,17.9089634 64.6085267,18.1528659 64.7477426,18.3559146 C64.8863369,18.5601829 65.0758942,18.7095732 65.317036,18.8034756 C65.5283458,18.8985976 65.7402771,18.9656707 65.9522084,19.0053049 C66.1635181,19.0455488 66.3903654,19.0766463 66.6302642,19.0985976 L66.6302642,19.1967683 L60.81303,19.1967683 L60.81303,19.0985976 C61.0504428,19.0766463 61.2561591,19.0620122 61.4301789,19.0546951 C61.6041987,19.0479878 61.7844336,19.0114024 61.9696404,18.9455488 C62.2145111,18.8656707 62.3984749,18.7187195 62.5202888,18.5034756 C62.6427242,18.2894512 62.7042526,18.040061 62.7042526,17.7559146 L62.7042526,9.60347561 C62.7042526,9.34189024 62.6396167,9.0870122 62.5122093,8.83945122 C62.3848019,8.5925 62.2151326,8.39615854 62.0038228,8.25042683 C61.843476,8.14128049 61.6508112,8.05042683 61.4239639,7.97786585 C61.1983596,7.90530488 60.9684049,7.8577439 60.7353426,7.83579268" fill="#221F20"></path>
                    <path d="M77.3094879,12.397622 L83.205031,12.3433537 C83.205031,11.7012805 83.170227,11.0835976 83.0993761,10.4884756 C83.0291466,9.89335366 82.8955243,9.3720122 82.699752,8.92506098 C82.5033582,8.47810976 82.2336274,8.12140244 81.8893168,7.85432927 C81.5450061,7.5872561 81.1031201,7.45371951 80.5624156,7.45371951 C80.0962911,7.45371951 79.670564,7.56347561 79.2858559,7.78359756 C78.9011478,8.00371951 78.5655381,8.32323171 78.2808914,8.74152439 C77.9956232,9.15920732 77.7681544,9.67689024 77.5984851,10.2933537 C77.4275728,10.9104268 77.3318619,11.6116463 77.3094879,12.397622 M75.185203,13.2817683 C75.185203,12.525061 75.3039094,11.7866463 75.5431867,11.0659146 C75.7818424,10.3457927 76.1292606,9.70554878 76.5835766,9.14579268 C77.0385142,8.58542683 77.5941346,8.13420732 78.2498165,7.79213415 C78.9054983,7.45006098 79.6575125,7.27932927 80.5071022,7.27932927 C81.3349393,7.27932927 82.0359906,7.41042683 82.6114991,7.6720122 C83.187629,7.93420732 83.655618,8.29457317 84.0148446,8.7525 C84.3746928,9.21103659 84.6357225,9.75615854 84.7973124,10.3896951 C84.9601452,11.022622 85.0403186,11.7031098 85.0403186,12.4305488 L85.0403186,12.6159146 L77.3094879,12.6159146 L77.3094879,12.8671341 C77.3094879,13.7037195 77.3890398,14.4817683 77.5481437,15.2025 C77.707869,15.922622 77.9533613,16.5488415 78.2864849,17.0793293 C78.6196086,17.6104268 79.0416067,18.0268902 79.5518576,18.3293293 C80.0633516,18.6311585 80.669935,18.7817683 81.3728508,18.7817683 C81.8843448,18.7817683 82.3318243,18.7293293 82.713425,18.6238415 C83.0956471,18.5183537 83.4331212,18.3659146 83.7258474,18.1653049 C84.0185736,17.9653049 84.2889259,17.7140854 84.5375256,17.4122561 C84.7861254,17.1104268 85.0328606,16.7628659 85.2771099,16.3701829 L85.4001667,16.4464024 C85.1770485,16.897622 84.9122897,17.3104268 84.604026,17.6848171 C84.2970054,18.0598171 83.9464797,18.3762805 83.5530706,18.6348171 C83.160283,18.8927439 82.7345559,19.0927439 82.2740249,19.2348171 C81.8141154,19.3768902 81.3218879,19.447622 80.7954779,19.447622 C79.8340184,19.447622 78.9993447,19.282378 78.2914569,18.9512805 C77.5829476,18.6201829 77.0006027,18.1744512 76.5425577,17.6140854 C76.0838911,17.0543293 75.7433095,16.4012805 75.5201912,15.654939 C75.2964514,14.9098171 75.185203,14.1183537 75.185203,13.2817683" fill="#221F20"></path>
                    <path d="M86.5421718,7.83579268 L86.5421718,7.73762195 L90.2326351,7.45408537 L90.3463695,7.5522561 L90.3463695,9.65835366 L90.390496,9.65835366 C90.6788717,9.2870122 90.9784344,8.95835366 91.2891841,8.67054878 C91.5999337,8.38335366 91.9081974,8.14006098 92.2152181,7.93945122 C92.5216173,7.73945122 92.8193155,7.58640244 93.1070697,7.48091463 C93.3960669,7.37603659 93.6695267,7.3229878 93.9286919,7.3229878 C94.0909032,7.3229878 94.2580866,7.35408537 94.4283774,7.41567073 C94.5992897,7.47786585 94.7534216,7.56506098 94.8907729,7.67786585 C95.0275028,7.79067073 95.1368867,7.92664634 95.2189246,8.0870122 C95.300341,8.24676829 95.3407385,8.41810976 95.3407385,8.59981707 C95.3407385,8.97847561 95.2388126,9.30591463 95.0349608,9.58213415 C94.831109,9.85835366 94.5290603,9.99676829 94.1281932,9.99676829 C93.78699,9.99676829 93.5054508,9.91323171 93.2835755,9.74554878 C93.0604573,9.57847561 92.9498304,9.3022561 92.9498304,8.91628049 C92.9498304,8.78518293 92.9771764,8.63762195 93.0324898,8.47420732 C93.0884247,8.31079268 93.1536822,8.17420732 93.2276406,8.06506098 C92.873386,8.06506098 92.5402623,8.13762195 92.2301341,8.28335366 C91.9193844,8.42908537 91.6428172,8.60713415 91.3985679,8.81810976 C91.1555617,9.02908537 90.9411444,9.24737805 90.7559376,9.4729878 C90.5713523,9.69859756 90.4352439,9.89128049 90.3463695,10.0510366 L90.3463695,17.6254268 C90.3463695,17.9089634 90.4047904,18.1540854 90.5216323,18.3620122 C90.6390957,18.5693293 90.8143585,18.7162805 91.0486638,18.8034756 C91.2680531,18.8985976 91.5365408,18.9693293 91.8547485,19.0162805 C92.1729562,19.0644512 92.4563599,19.0912805 92.7049596,19.0985976 L92.7049596,19.1967683 L86.6198593,19.1967683 L86.6198593,19.0985976 C86.857272,19.0766463 87.0629883,19.0620122 87.2376296,19.0546951 C87.411028,19.0479878 87.5912628,19.0114024 87.7764696,18.9455488 C88.0219619,18.8656707 88.2053042,18.7187195 88.3277395,18.5034756 C88.4495534,18.2894512 88.5110819,18.040061 88.5110819,17.7559146 L88.5110819,9.63640244 C88.5110819,9.3675 88.4470674,9.10591463 88.3190386,8.85103659 C88.1916312,8.59615854 88.0225833,8.39615854 87.8106521,8.25042683 C87.6503052,8.14128049 87.4576404,8.05042683 87.2307931,7.97786585 C87.0051889,7.90530488 86.7752341,7.8577439 86.5421718,7.83579268" fill="#221F20"></path>
                    <path d="M98.3026802,1.7352439 L98.3026802,1.63707317 L105.817229,1.63707317 L105.817229,1.7352439 C105.587274,1.75719512 105.305114,1.78829268 104.971368,1.82792683 C104.637623,1.86817073 104.31693,1.92853659 104.009287,2.00841463 C103.701645,2.08890244 103.439994,2.1852439 103.224955,2.29743902 C103.009916,2.41085366 102.902397,2.54378049 102.902397,2.69682927 C102.902397,2.76939024 102.913584,2.8754878 102.935958,3.01329268 C102.95771,3.15170732 102.983813,3.25719512 103.013645,3.33036585 C103.078281,3.52426829 103.180829,3.83158537 103.320666,4.25353659 C103.461746,4.6754878 103.630173,5.18158537 103.827188,5.77304878 C104.024203,6.36390244 104.2467,7.03280488 104.495921,7.7797561 C104.7439,8.52670732 105.008658,9.32182927 105.289576,10.165122 C105.570494,11.0090244 105.865706,11.8937805 106.174591,12.82 C106.482855,13.7468293 106.797955,14.6907317 107.118027,15.6517073 L110.771201,5.45902439 C110.794196,5.37 110.81657,5.27 110.838323,5.15841463 C110.860697,5.04682927 110.872505,4.93158537 110.872505,4.81268293 C110.872505,4.63402439 110.840809,4.44987805 110.777416,4.25841463 C110.714644,4.06817073 110.625148,3.83219512 110.510792,3.55231707 C110.395815,3.27243902 110.255978,3.00841463 110.093766,2.76085366 C109.930312,2.51390244 109.744484,2.32853659 109.537524,2.2047561 C109.44865,2.14621951 109.321864,2.09195122 109.159031,2.04073171 C108.996198,1.99012195 108.819693,1.94073171 108.630757,1.89317073 C108.441199,1.84621951 108.259722,1.81146341 108.085702,1.7895122 C107.911682,1.76817073 107.765008,1.74987805 107.646302,1.7352439 L107.646302,1.63707317 L115.121696,1.63707317 L115.121696,1.7352439 C114.89112,1.75719512 114.624497,1.79012195 114.319962,1.83402439 C114.016049,1.87731707 113.730781,1.9395122 113.464157,2.01939024 C113.196913,2.09987805 112.969444,2.19865854 112.779887,2.31512195 C112.590951,2.43158537 112.496483,2.56634146 112.496483,2.71939024 C112.496483,2.8145122 112.506427,2.92182927 112.528801,3.04256098 C112.550553,3.16268293 112.571684,3.27 112.594058,3.3645122 C112.651858,3.54743902 112.751298,3.83707317 112.892999,4.23463415 C113.033458,4.63158537 113.209343,5.12243902 113.419409,5.70536585 C113.629476,6.28890244 113.86316,6.94682927 114.120461,7.68036585 C114.37714,8.41268293 114.651221,9.20231707 114.94084,10.0480488 C115.229837,10.8937805 115.528778,11.7803659 115.835178,12.7078049 C116.142198,13.6352439 116.454812,14.5797561 116.77302,15.5413415 C117.140326,14.5340244 117.491473,13.5645122 117.827704,12.6340244 C118.163936,11.7035366 118.477171,10.8297561 118.768033,10.0114634 C119.058273,9.19439024 119.314952,8.43890244 119.536828,7.74621951 C119.758703,7.05292683 119.953232,6.44682927 120.119794,5.92731707 C120.232286,5.57792683 120.327996,5.26695122 120.40817,4.99378049 C120.488343,4.72121951 120.550493,4.47365854 120.59462,4.25170732 C120.638125,4.0297561 120.670443,3.8297561 120.690952,3.65109756 C120.71084,3.47304878 120.720784,3.29987805 120.720784,3.13280488 C120.720784,2.90719512 120.605807,2.71207317 120.376473,2.54865854 C120.145897,2.38463415 119.871816,2.24621951 119.552987,2.13402439 C119.234158,2.02060976 118.89109,1.93341463 118.523784,1.87182927 C118.157099,1.8102439 117.825219,1.7645122 117.528763,1.7352439 L117.528763,1.63707317 L124.162648,1.63707317 L124.162648,1.7352439 C123.917777,1.75719512 123.644939,1.8102439 123.345376,1.89439024 C123.045192,1.97853659 122.776083,2.09073171 122.53867,2.22914634 C122.197467,2.44195122 121.921521,2.68341463 121.70959,2.95414634 C121.49828,3.22487805 121.330475,3.52914634 121.203689,3.86573171 C121.02594,4.39317073 120.815252,5.01756098 120.571003,5.7395122 C120.326753,6.46085366 120.061373,7.245 119.775484,8.09134146 C119.488972,8.93707317 119.180709,9.83036585 118.849449,10.7706098 C118.517569,11.7114634 118.183202,12.67 117.844485,13.6468293 C117.505768,14.6236585 117.167051,15.5986585 116.828334,16.5718293 C116.489616,17.545 116.157736,18.4852439 115.835178,19.3931707 L115.710256,19.3931707 C115.311254,18.0541463 114.896092,16.7303659 114.464771,15.422439 C114.032829,14.1145122 113.618911,12.8620732 113.223016,11.6645122 C112.827742,10.467561 112.43744,9.35231707 112.051489,8.32060976 C111.665538,7.28768293 111.339873,6.36634146 111.072628,5.5547561 L106.081366,19.3931707 L105.92537,19.3931707 C105.584167,18.2718293 105.23737,17.1535366 104.88498,16.0376829 C104.531968,14.9218293 104.189522,13.8376829 103.85702,12.7846341 C103.523275,11.7315854 103.203824,10.72 102.897425,9.7504878 C102.590404,8.78097561 102.309487,7.89317073 102.054672,7.08646341 C101.799857,6.28036585 101.57301,5.56207317 101.373509,4.93341463 C101.174629,4.30414634 101.014903,3.79804878 100.894333,3.41573171 C100.850206,3.27792683 100.801729,3.15231707 100.750145,3.0395122 C100.697939,2.92670732 100.638896,2.82121951 100.571774,2.72304878 C100.505274,2.62426829 100.419507,2.53219512 100.315717,2.44439024 C100.211926,2.35719512 100.089491,2.27 99.9484105,2.18280488 C99.7116193,2.03707317 99.438781,1.93158537 99.1311388,1.86634146 C98.8234967,1.8004878 98.5475509,1.75719512 98.3026802,1.7352439" fill="#221F20"></path>
                    <path d="M123.972345,16.5447561 C123.972345,17.257561 124.123369,17.812439 124.426039,18.2087805 C124.728709,18.6057317 125.174946,18.8039024 125.766613,18.8039024 C126.455856,18.8039024 127.040687,18.6856098 127.521106,18.4490244 C128.000903,18.212439 128.431603,17.880122 128.811339,17.4502439 L128.9114,12.2008537 C128.580762,12.3319512 128.266905,12.4520732 127.968585,12.5612195 C127.669644,12.6703659 127.381269,12.7721951 127.102215,12.8667073 C126.551567,13.0709756 126.086064,13.2892683 125.706328,13.5215854 C125.32597,13.7545122 125.008384,14.0179268 124.754812,14.3130488 C124.50124,14.607561 124.307333,14.9368293 124.173089,15.3002439 C124.039466,15.664878 123.972345,16.0789024 123.972345,16.5447561 M121.84806,16.8612195 C121.84806,16.337439 121.920154,15.8953659 122.065584,15.535 C122.209772,15.1752439 122.40368,14.8715854 122.644822,14.6240244 C122.886585,14.3764634 123.160666,14.1728049 123.469552,14.0130488 C123.777815,13.8526829 124.091672,13.7142683 124.411123,13.5978049 C124.790238,13.46 125.178053,13.3234146 125.575813,13.1886585 C125.973572,13.0545122 126.371332,12.9215854 126.770335,12.7904878 C127.169959,12.6593902 127.552181,12.5252439 127.92073,12.3868293 C128.287415,12.2490244 128.618674,12.0990244 128.9114,11.9392683 L128.878461,10.1929268 C128.878461,9.85878049 128.84925,9.52768293 128.791451,9.2002439 C128.732408,8.87219512 128.619295,8.57829268 128.448383,8.31609756 C128.278092,8.05390244 128.030114,7.8447561 127.70507,7.68865854 C127.379404,7.53195122 126.954298,7.45390244 126.427889,7.45390244 C126.166237,7.45390244 125.926339,7.47768293 125.706949,7.52463415 C125.488181,7.57219512 125.294274,7.63560976 125.125226,7.71609756 C124.956178,7.79597561 124.813855,7.88317073 124.698877,7.97768293 C124.582657,8.07219512 124.498754,8.15634146 124.445306,8.22890244 C124.4596,8.34536585 124.47638,8.49231707 124.494404,8.67036585 C124.511806,8.84902439 124.533558,9.035 124.55904,9.22768293 C124.5839,9.4197561 124.606274,9.60756098 124.623676,9.78926829 C124.642321,9.97158537 124.651022,10.1167073 124.651022,10.2258537 C124.651022,10.4953659 124.537287,10.7246341 124.309819,10.9136585 C124.08235,11.1026829 123.780301,11.1971951 123.404916,11.1971951 C123.238354,11.1971951 123.101002,11.162439 122.992861,11.0935366 C122.884099,11.0246341 122.793982,10.9337805 122.721266,10.8203659 C122.649172,10.7081707 122.598831,10.5807317 122.56962,10.4386585 C122.54041,10.2965854 122.526737,10.1496341 122.526737,9.99658537 C122.526737,9.61853659 122.63985,9.26182927 122.867319,8.92707317 C123.094787,8.59231707 123.394972,8.30512195 123.767871,8.06487805 C124.140771,7.82463415 124.56339,7.63378049 125.037594,7.49170732 C125.511177,7.3502439 125.989731,7.2795122 126.473879,7.2795122 C127.094757,7.2795122 127.662808,7.32463415 128.179274,7.4154878 C128.695118,7.50695122 129.13949,7.685 129.513633,7.9502439 C129.887776,8.21609756 130.180502,8.59963415 130.394298,9.10146341 C130.607472,9.60390244 130.713748,10.262439 130.713748,11.0770732 C130.713748,11.637439 130.70629,12.212439 130.691996,12.8014634 C130.677701,13.3904878 130.663407,13.9490244 130.648491,14.4764634 C130.634818,15.0045122 130.61928,15.4770732 130.603743,15.8953659 C130.588205,16.3142683 130.580126,16.6282927 130.580126,16.8392683 C130.580126,17.057561 130.598149,17.257561 130.635439,17.4392683 C130.672108,17.6215854 130.736744,17.7819512 130.828726,17.9197561 C130.921329,18.0581707 131.037549,18.1673171 131.17863,18.2471951 C131.318467,18.3270732 131.492487,18.3673171 131.698825,18.3673171 C132.082911,18.3673171 132.390554,18.1892683 132.623616,17.832561 C132.856057,17.4758537 133.005216,16.9447561 133.071717,16.2392683 L133.238279,16.2392683 C133.194774,16.8282927 133.109007,17.3252439 132.983464,17.7289024 C132.857921,18.132561 132.703168,18.4563415 132.518582,18.7002439 C132.333997,18.9441463 132.114608,19.1203659 131.859172,19.2295122 C131.604978,19.3386585 131.314738,19.3929268 130.990315,19.3929268 C129.935009,19.3929268 129.242038,18.8221951 128.9114,17.6795122 L128.829984,17.6795122 C128.582627,17.9709756 128.29798,18.2252439 127.976665,18.4435366 C127.65535,18.6618293 127.319119,18.8453659 126.966728,18.9947561 C126.61496,19.1441463 126.251383,19.2569512 125.875997,19.3331707 C125.49999,19.4093902 125.134548,19.4478049 124.779051,19.4478049 C123.889685,19.4478049 123.17869,19.2240244 122.646686,18.7764634 C122.114683,18.3289024 121.84806,17.6904878 121.84806,16.8612195" fill="#221F20"></path>
                    <path d="M133.81677,7.83579268 L133.81677,7.73762195 L137.507234,7.45408537 L137.620968,7.5522561 L137.620968,9.65835366 L137.665094,9.65835366 C137.95347,9.2870122 138.253033,8.95835366 138.563782,8.67054878 C138.874532,8.38335366 139.182796,8.14006098 139.489817,7.93945122 C139.796216,7.73945122 140.093914,7.58640244 140.38229,7.48091463 C140.670665,7.37603659 140.944125,7.3229878 141.20329,7.3229878 C141.365502,7.3229878 141.532685,7.35408537 141.702976,7.41567073 C141.87451,7.47786585 142.02802,7.56506098 142.165371,7.67786585 C142.302101,7.79067073 142.411485,7.92664634 142.493523,8.0870122 C142.574939,8.24676829 142.615337,8.41810976 142.615337,8.59981707 C142.615337,8.97847561 142.513411,9.30591463 142.309559,9.58213415 C142.105707,9.85835366 141.803659,9.99676829 141.402792,9.99676829 C141.06221,9.99676829 140.780049,9.91323171 140.558174,9.74554878 C140.335056,9.57847561 140.224429,9.3022561 140.224429,8.91628049 C140.224429,8.78518293 140.251775,8.63762195 140.307088,8.47420732 C140.363023,8.31079268 140.428281,8.17420732 140.502239,8.06506098 C140.147984,8.06506098 139.814861,8.13762195 139.504733,8.28335366 C139.193983,8.42908537 138.917416,8.60713415 138.673788,8.81810976 C138.43016,9.02908537 138.215743,9.24737805 138.030536,9.4729878 C137.845951,9.69859756 137.710464,9.89128049 137.620968,10.0510366 L137.620968,17.6254268 C137.620968,17.9089634 137.679389,18.1540854 137.796852,18.3620122 C137.913694,18.5693293 138.088957,18.7162805 138.323262,18.8034756 C138.542652,18.8985976 138.811139,18.9693293 139.129347,19.0162805 C139.447555,19.0644512 139.730958,19.0912805 139.978937,19.0985976 L139.978937,19.1967683 L133.894458,19.1967683 L133.894458,19.0985976 C134.132492,19.0766463 134.338208,19.0620122 134.512228,19.0546951 C134.685626,19.0479878 134.865861,19.0114024 135.051068,18.9455488 C135.29656,18.8656707 135.479903,18.7187195 135.602338,18.5034756 C135.724152,18.2894512 135.78568,18.040061 135.78568,17.7559146 L135.78568,9.63640244 C135.78568,9.3675 135.721666,9.10591463 135.594258,8.85103659 C135.46623,8.59615854 135.297182,8.39615854 135.08525,8.25042683 C134.924904,8.14128049 134.732239,8.05042683 134.505392,7.97786585 C134.279787,7.90530488 134.050454,7.8577439 133.81677,7.83579268" fill="#221F20"></path>
                    <path d="M145.085673,13.5478049 C145.085673,14.2081707 145.168954,14.8520732 145.334272,15.4789024 C145.501456,16.1069512 145.757513,16.6618293 146.101203,17.1441463 C146.445513,17.6264634 146.883049,18.0167073 147.411323,18.3136585 C147.940841,18.6112195 148.572284,18.76 149.305653,18.76 C149.646235,18.76 149.953256,18.7240244 150.226715,18.6514634 C150.501418,18.5789024 150.753125,18.4843902 150.981837,18.3685366 C151.212413,18.2520732 151.426831,18.1130488 151.626954,17.9496341 C151.826455,17.7862195 152.018498,17.6136585 152.204326,17.432561 L152.204326,9.92402439 C152.107994,9.64109756 151.974372,9.35268293 151.804702,9.05878049 C151.63379,8.76487805 151.418751,8.5002439 151.159586,8.26426829 C150.900421,8.02890244 150.588428,7.83439024 150.222365,7.68256098 C149.85568,7.53012195 149.423117,7.45390244 148.927782,7.45390244 C148.372783,7.45390244 147.86191,7.60268293 147.395164,7.9002439 C146.92904,8.19780488 146.524444,8.61487805 146.184484,9.15146341 C145.844523,9.68804878 145.576036,10.330122 145.379642,11.0776829 C145.183248,11.8246341 145.085673,12.6478049 145.085673,13.5478049 M142.960766,13.1831707 C142.960766,12.3106098 143.131057,11.5142683 143.471639,10.7935366 C143.81222,10.0728049 144.262186,9.45085366 144.819671,8.92829268 C145.378399,8.40573171 146.024758,8.0002439 146.758127,7.71182927 C147.49274,7.42341463 148.255941,7.2795122 149.050217,7.2795122 C149.456678,7.2795122 149.836414,7.30939024 150.188804,7.3697561 C150.540573,7.43012195 150.853187,7.49963415 151.126647,7.57890244 C151.400106,7.65817073 151.628197,7.73682927 151.809674,7.81609756 C151.990531,7.89536585 152.122289,7.95390244 152.204326,7.99109756 L152.204326,2.41853659 C152.204326,2.07585366 152.139069,1.77585366 152.010419,1.52097561 C151.879904,1.2654878 151.718314,1.06853659 151.525649,0.929512195 C151.415022,0.84902439 151.264619,0.776463415 151.075684,0.710609756 C150.886748,0.644756098 150.681653,0.58804878 150.463507,0.540487805 C150.244739,0.493536585 150.027836,0.455121951 149.812797,0.425853659 C149.597137,0.396585366 149.401364,0.374634146 149.223615,0.36 L149.223615,0.261829268 L153.9178,0.000243902439 L154.039614,0.120365854 L154.039614,17.189878 C154.039614,17.4569512 154.099278,17.6978049 154.217984,17.9106098 C154.336069,18.1240244 154.502631,18.3026829 154.718291,18.4478049 C154.791628,18.4984146 154.894176,18.539878 155.024069,18.5721951 C155.153341,18.6045122 155.291314,18.6337805 155.435502,18.6593902 C155.580933,18.6843902 155.72512,18.7197561 155.86993,18.7660976 C156.014739,18.8112195 156.145875,18.8496341 156.264582,18.880122 L156.264582,18.8581707 L152.37151,19.2185366 L152.2267,19.0203659 L152.2267,17.6545122 L152.126639,17.6331707 C151.978722,17.7886585 151.791651,17.9758537 151.566047,18.1935366 C151.339821,18.4118293 151.076927,18.6160976 150.777364,18.8069512 C150.47718,18.9978049 150.145921,19.162439 149.782965,19.3026829 C149.420631,19.4429268 149.035301,19.5130488 148.628219,19.5130488 C147.833321,19.5130488 147.091251,19.364878 146.401387,19.0673171 C145.712144,18.7703659 145.112397,18.3484146 144.602146,17.8014634 C144.092517,17.2545122 143.69165,16.5904878 143.398923,15.8087805 C143.106819,15.0270732 142.960766,14.1520732 142.960766,13.1831707" fill="#221F20"></path>
                    <path d="M157.277191,7.83579268 L157.277191,7.73762195 L160.967654,7.45408537 L161.081388,7.5522561 L161.081388,9.65835366 L161.125515,9.65835366 C161.413891,9.2870122 161.713453,8.95835366 162.024203,8.67054878 C162.334331,8.38335366 162.643216,8.14006098 162.949616,7.93945122 C163.256636,7.73945122 163.554334,7.58640244 163.842089,7.48091463 C164.130464,7.37603659 164.404546,7.3229878 164.663089,7.3229878 C164.825922,7.3229878 164.993105,7.35408537 165.163396,7.41567073 C165.334309,7.47786585 165.487819,7.56506098 165.62517,7.67786585 C165.762522,7.79067073 165.871284,7.92664634 165.953322,8.0870122 C166.03536,8.24676829 166.075757,8.41810976 166.075757,8.59981707 C166.075757,8.97847561 165.973832,9.30591463 165.76998,9.58213415 C165.565506,9.85835366 165.264079,9.99676829 164.863212,9.99676829 C164.522009,9.99676829 164.24047,9.91323171 164.017973,9.74554878 C163.795476,9.57847561 163.684228,9.3022561 163.684228,8.91628049 C163.684228,8.78518293 163.712195,8.63762195 163.767509,8.47420732 C163.822822,8.31079268 163.888701,8.17420732 163.96266,8.06506098 C163.607783,8.06506098 163.275281,8.13762195 162.964532,8.28335366 C162.654403,8.42908537 162.377836,8.60713415 162.132965,8.81810976 C161.889959,9.02908537 161.675542,9.24737805 161.490957,9.4729878 C161.306371,9.69859756 161.169641,9.89128049 161.081388,10.0510366 L161.081388,17.6254268 C161.081388,17.9089634 161.139809,18.1540854 161.25603,18.3620122 C161.374115,18.5693293 161.548756,18.7162805 161.783061,18.8034756 C162.003072,18.8985976 162.27156,18.9693293 162.589767,19.0162805 C162.907354,19.0644512 163.190757,19.0912805 163.439357,19.0985976 L163.439357,19.1967683 L157.354878,19.1967683 L157.354878,19.0985976 C157.592291,19.0766463 157.798007,19.0620122 157.972027,19.0546951 C158.146047,19.0479878 158.326282,19.0114024 158.511489,18.9455488 C158.756359,18.8656707 158.940323,18.7187195 159.062137,18.5034756 C159.184572,18.2894512 159.246101,18.040061 159.246101,17.7559146 L159.246101,9.63640244 C159.246101,9.3675 159.181465,9.10591463 159.054057,8.85103659 C158.92665,8.59615854 158.756981,8.39615854 158.545671,8.25042683 C158.385324,8.14128049 158.192038,8.05042683 157.965812,7.97786585 C157.739586,7.90530488 157.510253,7.8577439 157.277191,7.83579268" fill="#221F20"></path>
                    <path d="M168.956966,13.2494512 C168.956966,14.032378 169.026574,14.7896951 169.167655,15.5220122 C169.308113,16.2543293 169.532475,16.9067683 169.840117,17.4793293 C170.147138,18.0518902 170.539925,18.5085976 171.016615,18.8494512 C171.494548,19.1903049 172.06322,19.3604268 172.72201,19.3604268 C173.351588,19.3604268 173.899129,19.1915244 174.365875,18.854939 C174.832,18.5177439 175.219194,18.0701829 175.526215,17.5116463 C175.833857,16.9537195 176.063812,16.3104268 176.215458,15.5817683 C176.366482,14.8531098 176.442926,14.0903049 176.442926,13.2927439 C176.442926,12.8360366 176.414959,12.3738415 176.359645,11.9061585 C176.30371,11.4390854 176.214836,10.9890854 176.093022,10.5579878 C175.970587,10.1268902 175.811483,9.72079268 175.615089,9.34030488 C175.418695,8.95981707 175.18439,8.62993902 174.909687,8.35067073 C174.636849,8.0720122 174.319263,7.8525 173.960658,7.69335366 C173.601431,7.53359756 173.188756,7.45371951 172.72201,7.45371951 C172.23289,7.45371951 171.80219,7.53908537 171.428048,7.70981707 C171.053905,7.87993902 170.726375,8.10981707 170.445457,8.40006098 C170.163297,8.68969512 169.927748,9.02689024 169.740056,9.41103659 C169.550498,9.79518293 169.398852,10.2012805 169.283875,10.6293293 C169.170141,11.0567683 169.086238,11.4951829 169.034654,11.9445732 C168.983069,12.3945732 168.956966,12.8293293 168.956966,13.2494512 M166.83206,13.4665244 C166.83206,12.5561585 166.975626,11.7214024 167.260895,10.9634756 C167.547406,10.2055488 167.95138,9.55128049 168.471575,9.00128049 C168.991149,8.45067073 169.616377,8.02628049 170.34726,7.7275 C171.078144,7.42871951 171.888579,7.27932927 172.777323,7.27932927 C173.659231,7.27932927 174.457236,7.43420732 175.168853,7.74396341 C175.881712,8.05371951 176.488296,8.47628049 176.989846,9.0122561 C177.490774,9.54823171 177.879211,10.182378 178.155157,10.9146951 C178.429238,11.647622 178.567833,12.4329878 178.567833,13.2714024 C178.567833,14.1134756 178.431724,14.9128659 178.160751,15.6677439 C177.889155,16.4232317 177.497611,17.0872561 176.984874,17.6610366 C176.472758,18.2354268 175.843801,18.6909146 175.098002,19.0287195 C174.352202,19.3659146 173.500748,19.5348171 172.543639,19.5348171 C171.797218,19.5348171 171.081251,19.3933537 170.394494,19.1098171 C169.708981,18.8268902 169.099911,18.4220122 168.568529,17.8957927 C168.037147,17.3689634 167.614528,16.7311585 167.301292,15.9835976 C166.988678,15.2354268 166.83206,14.3964024 166.83206,13.4665244" fill="#221F20"></path>
                    <path d="M182.350154,16.6129268 C182.439028,16.9178049 182.565192,17.2306098 182.727404,17.5507317 C182.890858,17.8702439 183.099682,18.1665854 183.355118,18.4391463 C183.609933,18.7117073 183.91571,18.9336585 184.271208,19.1037805 C184.626706,19.275122 185.048704,19.3604878 185.537824,19.3604878 C186.085365,19.3604878 186.592508,19.2220732 187.059254,18.9464634 C187.525379,18.6696341 187.930596,18.2757317 188.274907,17.7629268 C188.619218,17.2507317 188.88957,16.6257317 189.085964,15.8879268 C189.281736,15.150122 189.380554,14.3232927 189.380554,13.407439 C189.380554,12.7531707 189.305975,12.1062195 189.158058,11.4665854 C189.009519,10.8269512 188.770864,10.255 188.441469,9.7495122 C188.112074,9.24463415 187.692562,8.83731707 187.180447,8.52878049 C186.670196,8.21902439 186.056154,8.0647561 185.338323,8.0647561 C184.641622,8.0647561 184.056169,8.18670732 183.581965,8.43060976 C183.109004,8.67329268 182.698193,8.98060976 182.350154,9.35134146 L182.350154,16.6129268 Z M178.112149,0.381829268 L178.112149,0.283658537 L182.237662,0.0220731707 L182.350154,0.141585366 L182.350154,9.04707317 L182.439028,9.06902439 C182.586945,8.90926829 182.778988,8.72512195 183.016401,8.51780488 C183.253192,8.3104878 183.522301,8.11414634 183.821864,7.92878049 C184.121427,7.74280488 184.45455,7.58853659 184.821235,7.4647561 C185.187298,7.34097561 185.574492,7.27939024 185.982196,7.27939024 C186.760313,7.27939024 187.48436,7.42512195 188.153715,7.71597561 C188.82307,8.00682927 189.408522,8.41963415 189.910693,8.95439024 C190.412243,9.48914634 190.803167,10.1367073 191.084084,10.8970732 C191.36438,11.657439 191.504218,12.5031707 191.504218,13.4342683 C191.504218,14.3147561 191.336413,15.127561 190.99956,15.8732927 C190.663329,16.6196341 190.216471,17.2629268 189.659608,17.805 C189.102123,18.3470732 188.470679,18.7708537 187.763413,19.0769512 C187.056768,19.382439 186.333343,19.534878 185.593137,19.534878 C185.265607,19.534878 184.917567,19.4952439 184.546532,19.4147561 C184.175497,19.334878 183.809434,19.2367073 183.449586,19.1202439 C183.089738,19.0037805 182.750399,18.8763415 182.43157,18.7379268 C182.112119,18.600122 181.844875,18.4690244 181.629214,18.3452439 L180.492492,19.7860976 L180.414804,19.7312195 C180.436557,19.4763415 180.453337,19.1732927 180.464524,18.8202439 C180.475711,18.4671951 180.485034,18.0836585 180.492492,17.6684146 C180.499328,17.2537805 180.504922,16.8196341 180.509272,16.3647561 C180.513001,15.909878 180.514866,15.4495122 180.514866,14.9842683 L180.514866,2.25865854 C180.514866,1.88060976 180.452094,1.57329268 180.327173,1.33670732 C180.202252,1.10073171 180.033204,0.920853659 179.820651,0.797073171 C179.746693,0.745853659 179.636687,0.698292683 179.489392,0.655 C179.342097,0.611097561 179.1861,0.56902439 179.021403,0.529390244 C178.856084,0.489756098 178.69263,0.456829268 178.530418,0.431219512 C178.368829,0.405609756 178.229613,0.389146341 178.112149,0.381829268 L178.112149,0.381829268 Z" fill="#221F20"></path>
                    <path d="M195.253537,12.397622 L201.148459,12.3433537 C201.148459,11.7012805 201.114276,11.0835976 201.042804,10.4884756 C200.973196,9.89335366 200.839573,9.3720122 200.643801,8.92506098 C200.447407,8.47810976 200.177055,8.12140244 199.832744,7.85432927 C199.489055,7.5872561 199.046548,7.45371951 198.506465,7.45371951 C198.039719,7.45371951 197.614613,7.56347561 197.229905,7.78359756 C196.844575,8.00371951 196.509587,8.32323171 196.224941,8.74152439 C195.939672,9.15920732 195.712204,9.67689024 195.541913,10.2933537 C195.371622,10.9104268 195.27529,11.6116463 195.253537,12.397622 M193.128631,13.2817683 C193.128631,12.525061 193.247959,11.7866463 193.486614,11.0659146 C193.72527,10.3457927 194.072688,9.70554878 194.527626,9.14579268 C194.981942,8.58542683 195.537562,8.13420732 196.193244,7.79213415 C196.848926,7.45006098 197.601562,7.27932927 198.451151,7.27932927 C199.278989,7.27932927 199.979418,7.41042683 200.555548,7.6720122 C201.131057,7.93420732 201.599046,8.29457317 201.958894,8.7525 C202.31812,9.21103659 202.57915,9.75615854 202.741362,10.3896951 C202.903573,11.022622 202.983746,11.7031098 202.983746,12.4305488 L202.983746,12.6159146 L195.253537,12.6159146 L195.253537,12.8671341 C195.253537,13.7037195 195.333089,14.4817683 195.492193,15.2025 C195.651297,15.922622 195.89741,16.5488415 196.230534,17.0793293 C196.563036,17.6104268 196.985034,18.0268902 197.495907,18.3293293 C198.006779,18.6311585 198.613363,18.7817683 199.3169,18.7817683 C199.828394,18.7817683 200.275252,18.7293293 200.656853,18.6238415 C201.039696,18.5183537 201.376549,18.3659146 201.669275,18.1653049 C201.962623,17.9653049 202.232354,17.7140854 202.481575,17.4122561 C202.730175,17.1104268 202.976288,16.7628659 203.221159,16.3701829 L203.343594,16.4464024 C203.121098,16.897622 202.855717,17.3104268 202.548075,17.6848171 C202.240433,18.0598171 201.890529,18.3762805 201.49712,18.6348171 C201.103711,18.8927439 200.677984,19.0927439 200.217453,19.2348171 C199.757543,19.3768902 199.265316,19.447622 198.739527,19.447622 C197.778068,19.447622 196.943394,19.282378 196.234885,18.9512805 C195.526997,18.6201829 194.94403,18.1744512 194.485985,17.6140854 C194.02794,17.0543293 193.686737,16.4012805 193.463619,15.654939 C193.240501,14.9098171 193.128631,14.1183537 193.128631,13.2817683" fill="#221F20"></path>
                    <g transform="translate(205.094793, 15.834390)">
                        <mask id="mask-2" fill="white">
                            <use xlink:href="#path-1"></use>
                        </mask>
                        <g></g>
                        <path d="M0.102733846,2.08530488 C0.102733846,1.87432927 0.141888307,1.6779878 0.219575729,1.49628049 C0.29726315,1.31457317 0.401675045,1.15786585 0.530946915,1.02676829 C0.660840284,0.895670732 0.818701125,0.790182927 1.00390794,0.710304878 C1.18911475,0.630426829 1.38613005,0.590182927 1.59308934,0.590182927 C1.80067013,0.590182927 1.99582094,0.630426829 2.17792025,0.710304878 C2.35939807,0.790182927 2.51850191,0.895670732 2.65585327,1.02676829 C2.79320463,1.15786585 2.90258852,1.31457317 2.98400494,1.49628049 C3.06604286,1.6779878 3.10644032,1.87432927 3.10644032,2.08530488 C3.10644032,2.28164634 3.06604286,2.47128049 2.98400494,2.6529878 C2.90258852,2.83469512 2.79320463,2.98957317 2.65585327,3.11640244 C2.51850191,3.24384146 2.35939807,3.34567073 2.17792025,3.4225 C1.99582094,3.49871951 1.80067013,3.53652439 1.59308934,3.53652439 C1.38613005,3.53652439 1.18911475,3.49871951 1.00390794,3.4225 C0.818701125,3.34567073 0.660840284,3.24384146 0.530946915,3.11640244 C0.401675045,2.98957317 0.29726315,2.83469512 0.219575729,2.6529878 C0.141888307,2.47128049 0.102733846,2.28164634 0.102733846,2.08530488" fill="#221F20" mask="url(#mask-2)"></path>
                    </g>
                </g>
            </g>
        </g>
    </g>
</svg>