<svg width="131" height="22" viewBox="0 0 131 22" fill="none" xmlns="http://www.w3.org/2000/svg">
<g id="Logo">
<path id="Vector" d="M35.2284 12.476V21.5365H32.5V1.51074H45.8333L46.1937 3.4155C46.1422 3.4155 46.1422 3.4155 46.0907 3.36402C45.9878 3.36402 45.9363 3.36402 45.9363 3.31254C45.7304 3.00366 44.9582 2.69478 43.6712 2.3859C42.3327 2.07702 40.5824 1.92258 38.3687 1.92258H35.2284V11.9612H43.9286V12.4245H35.2284V12.476Z" fill="black"/>
<path id="Vector_2" d="M55.3572 15.8738C55.3572 15.359 55.3572 14.8442 55.3572 14.3294C55.3572 13.7631 55.3057 13.2483 55.3057 12.6821C55.0998 13.1454 54.7394 13.4543 54.2246 13.7631C53.7098 14.0205 53.1435 14.2779 52.5258 14.4839C51.908 14.6898 51.2388 14.8957 50.5695 15.0501C49.9003 15.2561 49.231 15.462 48.6648 15.7709C48.0985 16.0797 47.6352 16.4401 47.2748 16.9034C46.9144 17.3667 46.7085 17.9845 46.7085 18.7052C46.7085 19.5289 46.9144 20.0952 47.3263 20.507C47.7381 20.9189 48.3044 21.1248 49.0251 21.1248C49.7458 21.1248 50.6725 20.9189 51.6506 20.4555C52.6802 19.9922 53.8128 19.323 55.0483 18.4478C54.7394 18.7567 54.3276 19.1171 53.8128 19.5289C53.298 19.9407 52.6802 20.3011 52.011 20.6615C51.3417 21.0218 50.6725 21.3307 50.0032 21.5366C49.2825 21.794 48.6648 21.897 48.0985 21.897C47.6352 21.897 47.1204 21.8455 46.657 21.7425C46.1937 21.6396 45.7304 21.4851 45.3185 21.2277C44.9067 20.9703 44.5978 20.6615 44.3404 20.2496C44.083 19.8378 43.9286 19.2715 43.9286 18.6023C43.9286 18.036 44.083 17.5212 44.3919 17.1093C44.7008 16.6975 45.1126 16.3371 45.6274 16.0283C46.1422 15.7194 46.76 15.462 47.4292 15.2561C48.0985 15.0501 48.7677 14.8442 49.4884 14.6898C50.2092 14.4839 50.8784 14.3294 51.5476 14.175C52.2169 14.0205 52.8346 13.8146 53.3494 13.6087C53.9157 13.4028 54.3276 13.1454 54.6879 12.888C54.9968 12.5791 55.2027 12.2702 55.2542 11.8584C55.1512 11.2406 55.0483 10.6743 54.8424 10.1081C54.6879 9.54178 54.4305 9.07846 54.1216 8.66661C53.8128 8.25477 53.4009 7.9459 52.9376 7.68849C52.4743 7.43109 51.8565 7.37961 51.1873 7.37961C50.1577 7.43109 49.3855 7.53405 48.8707 7.73997C48.3559 7.94589 47.9955 8.20329 47.7381 8.51218C47.4807 8.82106 47.4292 9.12994 47.4292 9.4903C47.4292 9.85066 47.4292 10.1595 47.4292 10.4684C47.4292 10.8288 47.3263 11.0862 47.1204 11.2921C46.9144 11.498 46.657 11.5495 46.3482 11.5495C46.0393 11.5495 45.7304 11.4465 45.4215 11.1891C45.1126 10.9317 45.0097 10.6229 45.0097 10.211C45.0097 9.64474 45.2671 9.12994 45.7304 8.7181C46.1937 8.30626 46.8115 7.9459 47.4807 7.68849C48.15 7.43109 48.8707 7.22517 49.5914 7.12221C50.3121 7.01925 50.8784 6.96777 51.3417 6.96777C52.7832 6.96777 53.9672 7.17369 54.8424 7.58553C55.7175 7.99737 56.3868 8.56366 56.8501 9.2329C57.3134 9.90214 57.6223 10.7258 57.7767 11.6525C57.9312 12.5791 57.9826 13.5057 57.9826 14.5353V21.5881H55.4086V15.8738H55.3572Z" fill="black"/>
<path id="Vector_3" d="M63.6455 20.5072C63.9029 20.8676 64.3147 21.125 64.881 21.2794C65.4473 21.4339 66.0135 21.5368 66.6828 21.5368C67.3005 21.5368 67.9698 21.4854 68.5875 21.3309C69.2568 21.1765 69.8231 20.9706 70.3379 20.7132C70.8527 20.4558 71.316 20.1469 71.6249 19.735C71.9852 19.3747 72.1397 18.9114 72.1397 18.3966C72.1397 17.7788 71.8823 17.264 71.316 16.9036C70.7497 16.5433 70.029 16.2344 69.2053 15.977C68.3816 15.7196 67.455 15.4622 66.4769 15.2563C65.4987 15.0504 64.5721 14.7415 63.7484 14.4326C62.9247 14.0722 62.204 13.6604 61.6377 13.0941C61.0715 12.5278 60.8141 11.8071 60.8141 10.9319C60.8141 10.1083 61.02 9.43903 61.4318 8.92422C61.8437 8.40942 62.4099 7.99758 63.0277 7.6887C63.6969 7.37982 64.3662 7.1739 65.1384 7.07094C65.9106 6.96798 66.5798 6.9165 67.2491 6.9165C67.5579 6.9165 67.9698 6.96798 68.4846 7.01946C68.9994 7.07094 69.5142 7.22538 69.9775 7.4313C70.4408 7.63722 70.9041 7.84314 71.2645 8.15202C71.6249 8.4609 71.8308 8.87274 71.8308 9.33606C71.8308 9.64494 71.7278 9.90235 71.4704 10.1083C71.213 10.3142 70.9556 10.4171 70.6467 10.4171C70.2349 10.4171 69.9775 10.3142 69.7716 10.1597C69.5657 10.0053 69.4627 9.79939 69.3597 9.54199C69.2568 9.33607 69.2053 9.07866 69.1538 8.82126C69.1023 8.56386 69.0509 8.35795 68.8964 8.20351C68.639 7.89462 68.3301 7.63722 68.0213 7.53426C67.6609 7.4313 67.2491 7.32834 66.7857 7.32834C66.2709 7.32834 65.7561 7.37982 65.2413 7.48278C64.6751 7.58574 64.2117 7.74018 63.7484 7.9461C63.2851 8.15203 62.9247 8.4609 62.6673 8.76978C62.3585 9.13015 62.2555 9.54199 62.2555 10.0053C62.2555 10.4686 62.4099 10.8805 62.7703 11.1893C63.0792 11.4982 63.5425 11.7556 64.0573 12.013C64.5721 12.2189 65.1899 12.4249 65.9106 12.5793C66.5798 12.7337 67.3005 12.8882 68.0213 13.0941C68.742 13.3 69.4627 13.5059 70.1319 13.7119C70.8012 13.9178 71.4189 14.2267 71.9852 14.5356C72.5 14.8444 72.9633 15.2563 73.2722 15.7196C73.5811 16.1829 73.787 16.8007 73.787 17.4699C73.787 18.2421 73.5811 18.9114 73.1693 19.4776C72.7574 20.0439 72.2426 20.4558 71.5734 20.8161C70.9041 21.1765 70.1834 21.4339 69.3597 21.5883C68.5361 21.7428 67.6609 21.8457 66.7857 21.8457C66.4769 21.8457 66.168 21.8457 65.7561 21.7942C65.3443 21.7428 64.9325 21.7428 64.4691 21.6398C64.0058 21.5883 63.594 21.4854 63.1307 21.3309C62.6673 21.228 62.307 21.0735 61.9466 20.8676C61.5863 20.6617 61.3289 20.4558 61.0715 20.1984C60.8655 19.941 60.7626 19.6321 60.7626 19.2202C60.7626 18.9114 60.8655 18.7054 61.1229 18.4995C61.3803 18.2936 61.6377 18.1906 61.9466 18.1906C62.3585 18.1906 62.6159 18.2936 62.8218 18.448C63.0277 18.6025 63.1307 18.8084 63.2336 19.0658C63.2851 19.3232 63.3881 19.5291 63.3881 19.7865C63.4395 20.1469 63.5425 20.3528 63.6455 20.5072Z" fill="black"/>
<path id="Vector_4" d="M75.7432 1.51106L78.3172 0.121094V21.5883H75.7432V1.51106ZM78.6261 8.66678C78.832 8.3579 79.1409 8.1005 79.4498 7.89458C79.7587 7.68866 80.119 7.48274 80.5309 7.37978C80.9427 7.27682 81.3031 7.12238 81.7149 7.0709C82.1268 7.01942 82.4871 6.96794 82.899 6.96794C84.083 6.96794 85.0611 7.12238 85.8333 7.37978C86.6055 7.63718 87.2748 8.04902 87.7381 8.51234C88.2529 8.97567 88.6132 9.54195 88.8706 10.1597C89.128 10.7775 89.334 11.4467 89.4369 12.1159C89.5399 12.8367 89.5914 13.5059 89.6428 14.2781C89.6428 14.9988 89.6428 15.7196 89.6428 16.3888V21.5883H87.0688V16.1314C87.0688 15.6166 87.0688 15.1018 87.0688 14.484C87.0688 13.8663 87.0174 13.2485 86.9659 12.5793C86.9144 11.91 86.76 11.2923 86.6055 10.6745C86.4511 10.0567 86.1937 9.54195 85.8848 9.02715C85.5759 8.56382 85.1126 8.15198 84.5978 7.89458C84.083 7.5857 83.4138 7.43126 82.5901 7.43126C81.9208 7.43126 81.406 7.48274 80.9427 7.5857C80.4794 7.68866 80.119 7.79162 79.8102 7.89458C79.5013 7.99754 79.2439 8.15198 79.0894 8.30642C78.8835 8.46086 78.7291 8.56382 78.6261 8.66678Z" fill="black"/>
<path id="Vector_5" d="M98.5729 14.4326C98.5729 13.4545 98.7274 12.5278 99.0363 11.6012C99.3451 10.6745 99.8599 9.90235 100.529 9.18162C101.198 8.4609 102.022 7.9461 103 7.53426C103.978 7.12242 105.162 6.9165 106.501 6.9165C107.839 6.9165 109.023 7.12242 110.002 7.53426C110.98 7.9461 111.803 8.51239 112.473 9.23311C113.142 9.95383 113.605 10.726 113.914 11.6527C114.223 12.5278 114.377 13.5059 114.377 14.4326C114.377 15.4107 114.223 16.3374 113.914 17.264C113.605 18.1906 113.09 18.9628 112.421 19.6836C111.752 20.4043 110.928 20.9191 109.95 21.3309C108.972 21.7428 107.788 21.9487 106.501 21.9487C105.214 21.9487 103.978 21.7428 103 21.3309C102.022 20.9191 101.198 20.3528 100.529 19.6321C99.8599 18.9114 99.3966 18.1392 99.0363 17.2125C98.7274 16.3374 98.5729 15.4107 98.5729 14.4326ZM105.162 7.53426C104.287 7.53426 103.567 7.74018 103 8.15202C102.434 8.56386 101.971 9.07866 101.662 9.69643C101.353 10.3142 101.198 11.0864 101.095 11.9101C101.044 12.7337 101.095 13.6089 101.25 14.4841C101.404 15.3592 101.662 16.1829 102.074 17.0581C102.434 17.8818 102.897 18.6025 103.464 19.2717C104.03 19.8895 104.648 20.4558 105.368 20.8161C106.089 21.228 106.861 21.4339 107.736 21.4339C108.612 21.4339 109.281 21.228 109.847 20.8161C110.413 20.4043 110.825 19.8895 111.134 19.2717C111.443 18.654 111.597 17.8818 111.7 17.0581C111.752 16.2344 111.7 15.3592 111.546 14.4841C111.391 13.6089 111.083 12.7852 110.722 11.9101C110.362 11.0864 109.899 10.3657 109.332 9.69643C108.766 9.07866 108.148 8.51238 107.428 8.15202C106.707 7.79166 106.038 7.53426 105.162 7.53426Z" fill="black"/>
<path id="Vector_6" d="M116.586 7.89436L119.16 6.50439V21.5366H116.586V7.89436ZM119.417 8.66656C119.623 8.35768 119.932 8.10028 120.241 7.89436C120.549 7.68844 120.91 7.48252 121.322 7.37956C121.734 7.2766 122.094 7.12216 122.506 7.07068C122.918 7.0192 123.278 6.96772 123.69 6.96772C124.874 6.96772 125.852 7.12216 126.624 7.37956C127.396 7.63696 128.066 8.0488 128.529 8.51212C129.044 8.97544 129.404 9.54172 129.661 10.1595C129.919 10.7772 130.125 11.4465 130.228 12.1157C130.331 12.8364 130.382 13.5057 130.434 14.2779C130.434 14.9986 130.434 15.7193 130.434 16.3886V21.5881H127.86V16.1312C127.86 15.6164 127.86 15.1016 127.86 14.4838C127.86 13.866 127.808 13.2483 127.757 12.579C127.705 11.9098 127.551 11.292 127.396 10.6743C127.242 10.0565 126.984 9.54172 126.676 9.02692C126.367 8.5636 125.903 8.15176 125.389 7.89436C124.874 7.58548 124.205 7.43104 123.381 7.43104C122.712 7.43104 122.197 7.48252 121.734 7.58548C121.27 7.68844 120.91 7.7914 120.601 7.89436C120.292 7.99732 120.035 8.15176 119.88 8.3062C119.674 8.46064 119.52 8.5636 119.417 8.66656Z" fill="black"/>
<path id="Vector_7" d="M0.805969 2.00293H3.41984V11.5816H16.0224V2.00293H18.6363V21.6163H16.0224V12.0377H3.41984V21.6163H0.805969V2.00293Z" fill="black"/>
<path id="Vector_8" d="M23.0938 3.7838C23.0938 3.19018 23.2892 2.73902 23.6556 2.45408C24.022 2.16914 24.4372 2.00293 24.8768 2.00293C25.3165 2.00293 25.7073 2.1454 26.0981 2.45408C26.4645 2.73902 26.6599 3.19018 26.6599 3.7838C26.6599 4.37743 26.4645 4.80484 26.0981 5.08978C25.7317 5.37472 25.3165 5.51719 24.8768 5.51719C24.4372 5.51719 24.0464 5.37472 23.6556 5.08978C23.2892 4.80484 23.0938 4.37743 23.0938 3.7838ZM26.2447 7.03687V21.6163H23.68V8.41408L26.2447 7.03687Z" fill="black"/>
<path id="Vector_9" d="M92.751 3.7838C92.751 3.19018 92.9464 2.73902 93.3128 2.45408C93.6792 2.16914 94.0944 2.00293 94.5341 2.00293C94.9737 2.00293 95.3645 2.1454 95.7553 2.45408C96.1217 2.73902 96.3171 3.19018 96.3171 3.7838C96.3171 4.37743 96.1217 4.80484 95.7553 5.08978C95.389 5.37472 94.9737 5.51719 94.5341 5.51719C94.0944 5.51719 93.7036 5.37472 93.3128 5.08978C92.9464 4.80484 92.751 4.37743 92.751 3.7838ZM95.9019 7.03687V21.6163H93.3372V8.41408L95.9019 7.03687Z" fill="black"/>
</g>
</svg>
